<?xml version="1.0" encoding="iso-8859-1"?>
<!-- Generator: Adobe Illustrator 18.0.0, SVG Export Plug-In . SVG Version: 6.00 Build 0)  -->
<!DOCTYPE svg PUBLIC "-//W3C//DTD SVG 1.1//EN" "http://www.w3.org/Graphics/SVG/1.1/DTD/svg11.dtd">
<svg version="1.1" id="Capa_1" xmlns="http://www.w3.org/2000/svg" xmlns:xlink="http://www.w3.org/1999/xlink" x="0px" y="0px"
	 viewBox="0 0 192.667 192.667" style="enable-background:new 0 0 192.667 192.667;" xml:space="preserve" fill="#F78CB6">
<g>
	<path d="M166.75,41.757V6.5c0-3.59-2.91-6.5-6.5-6.5h-22.333c-3.59,0-6.5,2.91-6.5,6.5v11.86c-2.741-0.45-5.551-0.694-8.417-0.694
		H69.667c-2.866,0-5.676,0.244-8.417,0.694V6.5c0-3.59-2.91-6.5-6.5-6.5H32.417c-3.59,0-6.5,2.91-6.5,6.5v34.542
		c0,0.224,0.011,0.445,0.034,0.663c-5.13,8.039-8.117,17.572-8.117,27.796v93.167c0,16.542,13.458,30,30,30h97
		c16.542,0,30-13.458,30-30V69.5C174.833,59.299,171.859,49.785,166.75,41.757z M144.417,13h9.333v14.804
		c-2.895-2.141-6.023-3.979-9.333-5.487V13z M123,30.667c13.177,0,24.834,6.602,31.858,16.667H37.809
		c7.024-10.064,18.681-16.667,31.858-16.667H123z M48.25,13v9.317c-3.31,1.508-6.438,3.347-9.333,5.487V13H48.25z M161.833,162.667
		c0,9.374-7.626,17-17,17h-97c-9.374,0-17-7.626-17-17V69.5c0-3.158,0.388-6.226,1.103-9.167H160.73
		c0.715,2.941,1.103,6.009,1.103,9.167V162.667z"/>
	<path d="M143,98.5H51.667c-3.59,0-6.5,2.91-6.5,6.5v57c0,3.59,2.91,6.5,6.5,6.5H143c3.59,0,6.5-2.91,6.5-6.5v-57
		C149.5,101.41,146.59,98.5,143,98.5z M136.5,111.5v8.667H58.167V111.5H136.5z M58.167,155.5v-27.333H136.5V155.5H58.167z"/>
</g>
<g>
</g>
<g>
</g>
<g>
</g>
<g>
</g>
<g>
</g>
<g>
</g>
<g>
</g>
<g>
</g>
<g>
</g>
<g>
</g>
<g>
</g>
<g>
</g>
<g>
</g>
<g>
</g>
<g>
</g>
</svg>
