<svg width="123" height="36" viewBox="0 0 123 36" fill="none" xmlns="http://www.w3.org/2000/svg">
<path d="M27.708 0.423999V28H22.488V15.364L13.848 27.64H13.776L5.46 16.156V28H0.42V0.423999H0.456L13.884 19.468L27.636 0.423999H27.708ZM39.4887 12.268V28H34.4487V12.268H39.4887ZM34.3407 6.688C34.3407 5.968 34.6167 5.368 35.1687 4.888C35.7447 4.384 36.3927 4.132 37.1127 4.132C37.8087 4.132 38.4327 4.384 38.9847 4.888C39.5367 5.368 39.8127 5.968 39.8127 6.688C39.8127 7.408 39.5367 8.008 38.9847 8.488C38.4327 8.968 37.8087 9.208 37.1127 9.208C36.3927 9.208 35.7447 8.968 35.1687 8.488C34.6167 8.008 34.3407 7.408 34.3407 6.688Z" fill="#F78CB6"/>
<path d="M50.3312 15.868C50.7632 15.028 51.3512 14.272 52.0952 13.6C52.8632 12.928 53.6432 12.412 54.4352 12.052C55.2272 11.668 55.8512 11.476 56.3072 11.476L56.0552 16.516C55.9112 16.492 55.7072 16.48 55.4432 16.48C54.4352 16.48 53.5472 16.744 52.7792 17.272C52.0112 17.8 51.4232 18.484 51.0152 19.324C50.6072 20.14 50.4032 20.98 50.4032 21.844V28H45.3992V12.268H49.9352L50.3312 15.868ZM77.2775 12.268V28H72.2375V26.056C70.7255 27.64 68.9735 28.432 66.9815 28.432C64.6535 28.432 62.7575 27.736 61.2935 26.344C59.8535 24.952 59.1335 22.888 59.1335 20.152C59.1335 18.424 59.4815 16.912 60.1775 15.616C60.8975 14.296 61.8455 13.276 63.0215 12.556C64.1975 11.836 65.4575 11.476 66.8015 11.476C68.1935 11.476 69.2975 11.692 70.1135 12.124C70.9295 12.532 71.6495 13.12 72.2735 13.888L72.5975 12.268H77.2775ZM68.4215 24.328C70.1735 24.328 71.4455 23.536 72.2375 21.952V18.1C71.9495 17.332 71.4455 16.72 70.7255 16.264C70.0295 15.808 69.2015 15.58 68.2415 15.58C67.1375 15.58 66.1895 15.988 65.3975 16.804C64.6295 17.62 64.2455 18.652 64.2455 19.9C64.2455 20.716 64.4375 21.472 64.8215 22.168C65.2055 22.84 65.7095 23.368 66.3335 23.752C66.9815 24.136 67.6775 24.328 68.4215 24.328ZM100.795 12.268V28C100.795 29.488 100.363 30.832 99.4987 32.032C98.6587 33.256 97.5067 34.204 96.0427 34.876C94.6027 35.572 93.0307 35.92 91.3267 35.92C90.0307 35.92 88.8907 35.764 87.9067 35.452C86.9467 35.14 86.1667 34.792 85.5667 34.408C84.9907 34.024 84.2947 33.496 83.4787 32.824L86.4307 29.368C87.1507 30.04 87.8587 30.568 88.5547 30.952C89.2747 31.336 90.1747 31.528 91.2547 31.528C92.5267 31.528 93.5947 31.204 94.4587 30.556C95.3227 29.932 95.7547 29.056 95.7547 27.928V25.696C95.2747 26.512 94.5307 27.172 93.5227 27.676C92.5387 28.18 91.3267 28.432 89.8867 28.432C88.4707 28.432 87.1507 28.072 85.9267 27.352C84.7267 26.608 83.7667 25.6 83.0467 24.328C82.3267 23.032 81.9667 21.604 81.9667 20.044C81.9667 18.46 82.3387 17.008 83.0827 15.688C83.8507 14.368 84.8467 13.336 86.0707 12.592C87.3187 11.848 88.6267 11.476 89.9947 11.476C91.2907 11.476 92.4427 11.668 93.4507 12.052C94.4587 12.412 95.2267 12.892 95.7547 13.492L96.1507 12.268H100.795ZM91.3987 24.328C93.4147 24.328 94.8667 23.536 95.7547 21.952V18.1C95.4187 17.332 94.8547 16.72 94.0627 16.264C93.2947 15.808 92.4067 15.58 91.3987 15.58C90.1747 15.58 89.1427 15.988 88.3027 16.804C87.4627 17.62 87.0427 18.652 87.0427 19.9C87.0427 21.148 87.4627 22.204 88.3027 23.068C89.1427 23.908 90.1747 24.328 91.3987 24.328ZM114.54 24.148C115.548 24.148 116.592 23.8 117.672 23.104L119.904 26.848C119.04 27.328 118.128 27.712 117.168 28C116.208 28.288 115.296 28.432 114.432 28.432C112.56 28.432 110.94 28.084 109.572 27.388C108.228 26.668 107.208 25.672 106.512 24.4C105.816 23.104 105.468 21.628 105.468 19.972C105.468 18.436 105.864 17.02 106.656 15.724C107.472 14.428 108.576 13.408 109.968 12.664C111.36 11.896 112.884 11.512 114.54 11.512C116.796 11.512 118.644 12.172 120.084 13.492C121.548 14.812 122.496 16.696 122.928 19.144L111.408 22.816C112.176 23.704 113.22 24.148 114.54 24.148ZM114.144 15.436C113.016 15.436 112.116 15.82 111.444 16.588C110.772 17.356 110.436 18.388 110.436 19.684V20.008L117.348 17.668C116.844 16.18 115.776 15.436 114.144 15.436Z" fill="#56597A"/>
</svg>
